<svg version="1.0" xmlns="http://www.w3.org/2000/svg" width="306.000000pt" height="600.000000pt" viewBox="0 0 306.000000 600.000000" preserveAspectRatio="xMidYMid meet" style="width: 375.416px; height: auto;"> <g transform="translate(0.000000,600.000000) scale(0.100000,-0.100000)" fill="#000000" stroke="none" class=""> <path d="M1480 5924 c-109 -49 -205 -84 -270 -98 -96 -22 -120 -36 -165 -94 -42 -56 -67 -70 -144 -83 -72 -11 -82 -21 -75 -73 6 -41 5 -43 -27 -59 -50 -25 -67 -40 -74 -68 -12 -45 -49 -78 -115 -102 -36 -13 -66 -30 -68 -38 -5 -27 24 -52 69 -58 43 -6 44 -7 47 -45 2 -21 -4 -53 -13 -72 -9 -19 -21 -76 -26 -127 -5 -51 -14 -120 -20 -155 -14 -79 -5 -140 27 -183 27 -37 27 -41 2 -210 -11 -76 -11 -76 20 -134 l32 -58 -24 -28 c-37 -43 -49 -92 -50 -208 -1 -91 -4 -108 -19 -120 -14 -10 -17 -21 -14 -41 5 -22 -2 -35 -41 -73 -26 -26 -52 -47 -56 -47 -23 0 -136 -62 -150 -82 -9 -12 -16 -37 -16 -56 0 -39 -37 -82 -72 -82 -28 -1 -46 -14 -91 -67 -31 -38 -35 -49 -41 -125 -10 -124 29 -260 102 -357 22 -30 27 -49 32 -127 7 -104 14 -117 79 -146 93 -40 107 -45 139 -52 17 -4 32 -12 32 -17 0 -5 17 -31 38 -59 71 -93 100 -165 112 -275 10 -89 15 -103 35 -115 14 -8 104 -76 202 -150 97 -74 189 -142 204 -152 15 -9 28 -28 31 -45 5 -28 50 -242 139 -658 27 -126 72 -338 99 -470 60 -285 58 -275 76 -275 8 0 46 16 85 35 39 19 84 35 100 35 24 0 40 16 123 128 118 158 181 276 178 335 -2 47 -45 201 -88 319 l-29 77 45 91 c58 119 66 126 144 122 l61 -2 40 56 c75 106 116 155 139 165 13 6 32 31 44 55 21 42 28 47 219 143 220 110 260 141 249 192 -3 17 -20 47 -37 67 l-31 35 4 146 c4 113 10 159 26 206 11 33 18 63 14 66 -4 4 -51 12 -104 18 -118 13 -146 23 -158 55 -17 46 -23 124 -11 157 9 27 8 39 -11 77 -27 54 -55 69 -100 55 -28 -8 -33 -13 -31 -39 2 -25 -4 -32 -47 -56 -47 -27 -49 -27 -71 -9 -21 17 -22 19 -6 42 10 13 17 42 17 66 0 30 4 43 14 43 8 0 21 3 30 6 12 5 16 0 16 -19 0 -35 19 -44 39 -20 9 11 36 35 61 53 45 35 60 49 60 62 0 3 -21 19 -47 35 -62 38 -153 50 -177 24 -20 -22 -33 -106 -17 -115 16 -10 14 -26 -3 -20 -8 3 -40 -7 -71 -22 l-57 -27 -61 29 c-69 33 -152 110 -192 179 -31 52 -69 188 -55 193 6 2 10 9 10 16 0 29 71 93 143 128 53 26 81 47 96 71 19 32 42 46 96 61 11 3 29 23 40 43 15 28 27 39 48 41 21 3 32 13 49 45 11 23 43 74 69 113 59 86 99 170 99 207 0 19 6 31 18 34 9 3 28 18 41 35 l24 30 -31 25 c-45 35 -60 89 -37 137 17 35 17 38 0 56 -14 15 -16 29 -11 64 l7 45 -58 17 c-33 10 -75 31 -97 50 -22 19 -45 34 -51 34 -22 0 -91 80 -129 150 -32 59 -38 81 -37 127 1 93 31 170 70 180 14 3 32 13 39 20 8 7 35 19 60 26 44 12 47 15 80 87 19 41 63 118 99 171 l65 96 -13 73 c-8 40 -20 75 -27 78 -25 9 -89 -30 -146 -89 -56 -58 -71 -66 -131 -71 -24 -2 -34 -11 -50 -43 -37 -72 -78 -91 -133 -60 -15 8 -40 19 -55 25 -16 6 -25 15 -21 21 4 8 9 8 17 0 18 -18 41 -12 64 18 l23 29 -40 36 c-22 20 -44 36 -48 36 -5 0 -17 15 -27 34 -18 33 -18 35 -1 61 10 15 15 29 13 32 -3 2 -23 -1 -45 -7 -35 -9 -46 -19 -74 -68 -18 -31 -31 -61 -30 -66 2 -4 -9 -5 -24 -2 -72 18 -82 18 -125 -7 -24 -14 -55 -28 -69 -32 -14 -4 -49 -30 -78 -57 l-52 -49 -29 21 c-30 21 -99 116 -122 168 -8 18 -25 34 -46 41 -28 11 -33 17 -33 45 0 32 1 32 70 49 39 9 127 39 196 67 129 52 155 57 198 40 33 -12 33 -38 1 -50 -35 -13 -35 -66 -1 -81 36 -17 73 -4 78 26 4 17 1 25 -8 25 -8 0 -14 4 -14 9 0 5 23 11 51 15 43 6 58 3 107 -21 l57 -28 -37 -3 c-39 -3 -50 -15 -22 -26 22 -8 26 -8 19 5 -4 6 4 9 21 7 20 -2 29 2 32 13 2 11 -14 24 -50 42 -77 36 -87 38 -147 22 -67 -18 -83 -31 -47 -41 37 -9 27 -29 -14 -29 -44 0 -49 19 -11 52 39 35 39 48 -1 73 -39 24 -80 25 -128 4z m-360 -178 c0 -29 5 -37 31 -48 20 -9 40 -31 61 -70 33 -62 118 -158 140 -158 8 0 27 13 44 28 l30 28 28 -28 c15 -16 46 -38 67 -49 30 -15 46 -32 62 -67 11 -26 23 -50 25 -54 2 -5 -2 -8 -9 -8 -14 0 -36 -25 -49 -56 -6 -14 -22 -24 -47 -29 -21 -4 -44 -12 -51 -17 -9 -8 -17 -6 -30 6 -10 9 -32 16 -48 16 -37 0 -94 -34 -94 -56 0 -16 -2 -15 -20 1 -15 13 -30 16 -64 13 -57 -7 -85 11 -84 52 1 17 5 33 10 36 19 12 -5 131 -42 209 -10 22 -22 67 -26 100 -3 33 -11 66 -16 72 -7 9 1 28 27 63 20 27 41 50 46 50 5 0 9 -15 9 -34z m700 -15 c-15 -29 4 -70 52 -112 l42 -36 -79 -26 c-44 -14 -83 -23 -87 -21 -4 3 -8 14 -8 25 0 16 -5 19 -20 14 -11 -3 -20 -3 -20 1 0 16 73 150 88 162 26 20 45 16 32 -7z m585 -84 l14 -48 -57 -82 c-31 -45 -77 -122 -102 -171 -42 -83 -48 -90 -88 -103 -24 -8 -62 -24 -85 -36 -32 -17 -55 -22 -94 -19 l-53 4 0 36 c0 21 9 64 19 97 10 33 21 71 22 85 4 24 19 38 67 59 12 6 22 17 22 25 0 37 23 66 52 66 48 0 92 25 140 80 52 60 121 98 126 71 2 -9 10 -38 17 -64z m-1378 11 c6 -7 13 -43 16 -80 2 -38 11 -78 19 -90 8 -13 25 -56 37 -97 18 -58 21 -79 12 -93 -6 -10 -11 -27 -11 -38 0 -16 -5 -19 -23 -15 -15 4 -37 -2 -61 -16 -34 -20 -47 -21 -122 -16 -71 5 -91 3 -122 -12 -20 -11 -49 -22 -64 -25 -26 -6 -27 -4 -30 36 -3 45 -2 44 -91 63 -45 9 -29 35 37 59 62 23 116 72 116 105 0 20 25 44 80 74 31 17 32 20 27 61 -7 50 -5 52 73 62 27 4 58 13 67 20 23 17 28 17 40 2z m627 -39 c40 -10 42 -12 38 -41 -4 -26 -2 -30 11 -25 22 8 45 -32 26 -44 -11 -6 -10 -15 4 -45 17 -35 17 -37 0 -50 -10 -7 -28 -10 -40 -7 -16 4 -25 0 -30 -13 -3 -11 -13 -30 -22 -43 l-15 -23 -25 53 c-19 39 -37 60 -65 76 -57 31 -100 73 -87 86 8 8 137 77 159 86 2 0 22 -4 46 -10z m276 -57 c0 -5 -9 -17 -20 -27 -11 -10 -20 -13 -20 -7 0 14 -29 15 -50 2 -12 -7 -12 -11 3 -28 17 -18 17 -20 0 -40 -10 -11 -32 -23 -48 -26 -27 -6 -32 -3 -42 25 -7 18 -10 35 -8 39 3 4 31 17 62 30 32 12 67 26 78 30 27 11 45 12 45 2z m26 -112 c17 0 18 9 -7 -99 -26 -116 -43 -128 -93 -74 -20 21 -38 45 -41 54 -3 10 -21 19 -46 22 -54 7 -69 22 -43 42 10 8 26 15 34 15 38 1 101 34 106 57 l6 24 35 -21 c19 -11 41 -20 49 -20z m-237 -99 c11 -6 30 -11 43 -11 17 0 37 -16 68 -55 39 -47 49 -54 73 -50 24 4 27 2 27 -25 0 -16 5 -32 10 -35 19 -12 11 -75 -12 -96 -51 -46 -111 -89 -124 -89 -7 0 -23 -17 -36 -39 l-22 -38 -49 24 c-39 20 -58 24 -92 19 l-42 -7 1 37 c1 38 -1 41 -66 70 -21 9 -38 19 -38 23 0 3 13 13 29 23 40 22 63 61 66 108 2 43 27 88 53 97 21 7 50 40 63 73 11 25 11 25 19 3 5 -12 18 -26 29 -32z m-610 -145 c32 -33 36 -34 87 -29 37 4 54 2 54 -6 0 -6 9 -11 20 -11 11 0 20 6 20 14 0 18 60 56 87 56 11 0 28 -9 38 -20 16 -18 21 -19 39 -6 29 18 83 29 90 18 9 -15 -15 -75 -38 -95 -11 -10 -30 -20 -43 -23 -13 -4 -23 -8 -23 -11 0 -19 27 -44 70 -62 33 -14 50 -28 50 -39 0 -23 -43 -64 -95 -90 -54 -28 -85 -76 -85 -133 0 -25 5 -50 11 -56 21 -21 -44 -45 -101 -37 -60 8 -66 -6 -20 -49 16 -15 42 -48 59 -72 l29 -43 -32 -5 c-24 -3 -39 2 -68 27 -20 17 -58 42 -85 56 -70 36 -93 64 -82 104 4 17 11 47 14 67 3 20 21 57 40 82 45 59 45 88 -4 157 -21 30 -42 71 -46 90 -10 47 -41 116 -55 125 -9 6 -9 10 1 16 23 14 34 10 68 -25z m-71 -9 c6 -7 18 -42 28 -77 11 -41 33 -87 61 -124 24 -33 43 -69 43 -81 0 -12 -16 -40 -35 -62 -40 -47 -49 -69 -59 -135 -8 -57 -16 -58 -87 -22 -27 15 -70 29 -94 31 -40 5 -44 3 -59 -25 -9 -17 -16 -40 -16 -52 0 -15 -6 -20 -24 -20 -14 0 -28 5 -31 10 -11 18 -58 11 -82 -12 l-23 -21 0 28 c0 16 -10 39 -22 53 -20 20 -23 34 -23 95 1 91 30 314 46 350 6 14 16 24 21 21 12 -8 108 28 108 39 0 6 26 8 63 4 34 -2 82 -1 107 3 66 11 67 11 78 -3z m1002 -30 c0 -2 -7 -19 -16 -37 -9 -18 -19 -63 -22 -99 -4 -63 -2 -71 41 -156 25 -50 59 -103 75 -118 29 -28 30 -29 11 -48 -13 -13 -17 -27 -13 -48 5 -24 -1 -38 -31 -75 -34 -42 -41 -46 -81 -46 -36 0 -49 6 -79 35 -19 20 -35 40 -35 45 0 6 -13 39 -30 73 -16 35 -30 67 -30 70 0 3 11 23 25 43 29 43 34 114 10 134 -8 7 -15 9 -15 4 0 -4 -5 -3 -11 3 -15 15 5 43 63 88 47 36 74 87 62 118 -5 14 1 17 35 17 23 0 41 -2 41 -3z m-220 -203 c-12 -13 -11 -17 1 -25 8 -5 19 -9 26 -9 6 0 14 -13 18 -29 6 -28 -11 -72 -47 -122 -9 -14 -3 -34 35 -109 l47 -92 -24 -23 c-26 -24 -43 -72 -52 -150 -4 -38 -1 -61 15 -97 l20 -47 -57 -55 -57 -56 -14 44 c-14 43 -15 44 -66 49 -62 6 -179 62 -235 113 -35 32 -40 42 -40 80 0 53 -45 140 -99 190 l-36 34 51 -2 c44 -1 66 7 113 38 2 2 -4 10 -13 19 -23 23 -21 90 5 126 11 16 37 36 57 45 20 8 46 23 57 33 11 10 43 21 71 24 42 5 58 1 93 -19 56 -31 66 -30 81 6 12 30 49 64 58 55 3 -2 -1 -12 -8 -21z m-889 -256 c19 -6 46 -19 60 -29 14 -10 38 -21 55 -25 16 -4 35 -16 42 -26 7 -10 29 -25 47 -32 50 -21 145 -94 145 -112 0 -8 -13 -23 -29 -32 -17 -9 -32 -24 -35 -32 -3 -8 -15 -27 -27 -42 -28 -34 -19 -72 21 -93 24 -13 30 -22 30 -50 0 -58 -15 -82 -62 -97 -25 -9 -47 -23 -53 -36 -5 -12 -13 -22 -17 -22 -5 0 -15 -18 -24 -40 -20 -49 -75 -87 -187 -130 -91 -35 -126 -35 -215 -3 -63 24 -59 20 -66 63 -13 86 31 262 69 277 21 7 19 15 -16 72 -29 46 -31 56 -25 106 3 30 9 81 13 113 6 58 17 74 62 93 18 7 28 6 43 -8 30 -27 71 -7 78 38 11 62 25 70 91 47z m1293 -27 c29 -25 62 -43 95 -51 52 -12 69 -24 51 -35 -5 -3 -10 -14 -10 -24 0 -12 -10 -20 -29 -24 -16 -4 -45 -20 -65 -37 l-35 -31 -86 26 -85 27 40 48 c36 43 40 53 35 84 -6 27 -3 36 12 45 26 15 27 15 77 -28z m-279 -141 c17 -11 44 -20 61 -20 17 0 76 -13 132 -28 l101 -29 23 24 c13 14 38 31 57 39 32 13 36 13 54 -5 19 -18 19 -21 4 -54 -27 -57 -6 -124 50 -156 17 -9 17 -10 -1 -30 -10 -11 -27 -23 -37 -26 -11 -4 -22 -17 -25 -31 -9 -34 -22 -30 -80 21 -33 28 -67 48 -95 54 -70 17 -87 14 -101 -16 -8 -17 -33 -38 -61 -52 l-47 -23 -59 18 c-38 12 -57 23 -54 31 3 7 -3 35 -13 62 -16 44 -16 58 -5 117 13 74 35 124 54 124 6 0 26 -9 42 -20z m-587 -46 c19 -6 22 -13 22 -58 0 -49 3 -55 47 -95 56 -53 159 -103 224 -109 45 -4 48 -6 63 -46 9 -23 16 -47 16 -54 0 -16 -47 -111 -81 -167 -14 -22 -33 -59 -42 -81 -14 -37 -14 -44 -1 -63 10 -14 26 -21 46 -21 35 0 98 -35 98 -55 0 -18 -48 -55 -72 -55 -25 0 -119 -48 -135 -69 -7 -9 -10 -23 -7 -31 4 -8 8 -24 11 -35 4 -19 3 -18 -15 3 -24 26 -40 28 -70 6 -23 -16 -23 -16 -20 27 2 37 -2 45 -27 63 -130 94 -149 113 -160 153 -17 69 -21 71 -212 104 l-71 13 52 33 c33 20 60 46 72 70 36 72 54 93 80 93 14 0 36 11 50 25 22 22 25 32 22 82 -3 49 -6 59 -27 70 -13 6 -28 17 -32 25 -9 17 7 57 26 64 8 4 15 11 15 16 0 13 82 98 95 98 6 0 20 -3 33 -6z m833 -214 c23 -6 64 -29 91 -51 27 -21 56 -39 65 -39 10 0 12 -6 7 -22 -13 -42 -62 -133 -88 -163 -14 -16 -41 -58 -58 -92 -25 -48 -38 -63 -58 -65 -15 -2 -33 -16 -48 -38 -16 -24 -37 -40 -70 -51 -32 -10 -51 -24 -60 -42 -14 -30 -46 -54 -114 -86 -49 -23 -138 -106 -138 -128 0 -7 -7 -10 -15 -7 -8 4 -15 1 -15 -5 0 -18 -20 -13 -52 14 -22 18 -36 23 -55 19 -22 -6 -24 -4 -18 15 4 13 2 28 -5 36 -7 8 -10 21 -7 28 7 18 111 77 135 77 29 0 72 39 72 64 0 33 -33 58 -84 63 -25 3 -51 11 -56 19 -15 17 10 91 49 148 16 22 44 73 64 111 19 39 52 87 72 109 33 33 42 37 72 33 18 -3 47 -13 64 -21 28 -14 34 -14 84 8 29 13 63 38 76 55 13 17 29 29 35 27 7 -3 32 -10 55 -16z m-1163 -385 c51 -12 140 -26 167 -26 19 -1 33 -20 45 -64 13 -46 41 -75 143 -144 43 -29 47 -36 47 -71 0 -50 -24 -65 -91 -57 -31 4 -53 1 -65 -7 -9 -7 -25 -11 -35 -9 -9 3 -20 0 -23 -6 -4 -6 -26 -11 -50 -11 -44 0 -67 -12 -83 -44 -11 -20 -73 -26 -298 -29 l-120 -1 -18 37 c-10 22 -24 37 -35 37 -18 0 -85 40 -132 79 l-25 21 30 25 c26 21 30 32 32 81 2 52 4 58 43 91 38 33 41 39 35 70 -8 46 11 51 83 23 88 -34 136 -34 212 -1 36 15 69 26 73 23 5 -2 34 -10 65 -17z m-528 -200 c0 -33 -4 -45 -14 -45 -16 0 -46 -37 -46 -57 0 -7 6 -13 13 -13 8 0 24 -12 38 -26 29 -32 102 -76 119 -72 11 3 15 -3 39 -49 7 -16 21 -18 105 -14 65 2 96 0 96 -8 0 -44 -115 -168 -224 -241 -26 -18 -72 -56 -103 -86 -31 -30 -61 -54 -65 -54 -4 0 -25 -15 -45 -33 -42 -37 -123 -87 -142 -87 -6 0 -16 12 -21 26 -6 14 -30 58 -53 97 -41 69 -80 184 -80 237 0 14 4 53 8 87 7 53 13 68 49 106 29 31 52 47 77 51 48 8 68 33 78 95 4 28 11 54 14 57 11 11 132 72 145 73 8 1 12 -14 12 -44z m1032 -159 c23 -23 41 -33 54 -30 11 3 33 -6 53 -20 26 -20 38 -23 48 -14 17 14 17 15 32 -62 7 -36 24 -87 39 -113 38 -71 136 -174 187 -196 l44 -20 -46 -76 c-37 -63 -53 -80 -87 -95 -23 -9 -50 -27 -61 -40 -30 -33 -62 -46 -148 -59 -90 -15 -91 -14 -167 85 -44 56 -46 66 -26 106 14 26 13 28 -33 71 -26 25 -57 48 -70 52 -29 9 -83 106 -97 175 -10 44 -9 66 2 110 8 30 12 62 9 71 -8 26 22 38 80 33 43 -4 57 -1 100 25 28 17 51 31 52 31 0 0 17 -16 35 -34z m-282 -68 c0 -18 -5 -51 -11 -72 -23 -85 47 -263 116 -291 38 -16 85 -59 85 -78 0 -8 -5 -28 -11 -45 -10 -29 -8 -36 22 -74 18 -24 48 -59 68 -79 20 -20 41 -44 47 -55 6 -10 29 -26 52 -34 22 -9 44 -18 47 -22 4 -4 2 -30 -4 -59 -11 -50 -10 -54 14 -79 14 -14 23 -29 19 -32 -3 -4 -14 -39 -24 -80 -19 -71 -19 -74 -1 -110 10 -21 14 -38 8 -38 -6 0 -36 25 -68 55 -67 64 -95 69 -153 30 -52 -35 -192 -74 -306 -85 -52 -5 -133 -19 -180 -31 -47 -11 -96 -23 -110 -25 -14 -3 -56 -13 -95 -23 -38 -10 -77 -20 -84 -22 -12 -3 -18 19 -27 105 -12 104 -15 111 -68 200 -58 97 -99 146 -120 146 -21 0 -164 65 -186 85 -16 15 -20 31 -20 82 0 53 3 63 18 63 31 0 232 139 232 160 0 6 5 10 11 10 7 0 33 19 60 43 46 41 123 102 179 141 29 22 100 122 100 143 0 7 12 13 28 14 15 0 36 3 47 5 11 3 48 5 83 6 57 2 65 4 83 30 17 23 28 28 64 28 24 0 47 5 50 10 14 23 35 9 35 -22z m1092 -239 c20 -10 39 -23 42 -27 3 -5 -19 -27 -49 -48 -30 -22 -54 -46 -55 -54 0 -8 -7 0 -15 18 -14 32 -38 42 -50 22 -11 -18 -35 10 -35 41 0 15 4 39 10 53 9 24 12 25 62 19 29 -3 70 -14 90 -24z m-172 -158 c0 -20 -6 -46 -14 -56 -10 -14 -11 -25 -3 -42 16 -36 48 -38 106 -8 56 28 70 47 52 69 -13 16 4 26 45 26 36 0 78 -68 68 -112 -9 -43 -6 -113 8 -160 14 -47 51 -66 149 -73 118 -10 120 -11 108 -43 -34 -89 -52 -327 -29 -388 6 -15 22 -38 35 -50 32 -29 33 -73 3 -101 -21 -19 -208 -118 -208 -109 0 2 23 37 50 79 28 42 50 83 50 91 0 8 -24 32 -52 53 -95 69 -107 88 -108 168 -1 39 -8 88 -16 110 -9 22 -18 50 -21 62 -7 30 -27 45 -112 84 -45 20 -89 49 -111 72 -31 34 -41 39 -80 39 -28 0 -68 -10 -104 -26 -32 -14 -86 -33 -120 -42 -34 -9 -72 -26 -86 -39 -15 -14 -42 -26 -67 -29 l-41 -5 1 46 c2 49 1 50 -68 79 l-40 17 77 13 c105 17 112 20 164 65 25 21 51 39 58 39 17 0 66 55 105 117 26 42 37 52 55 48 11 -2 46 8 76 24 30 15 58 26 63 24 4 -2 7 -21 7 -42z m-10 -338 c21 -21 75 -56 120 -78 78 -38 84 -43 107 -95 19 -40 27 -79 31 -140 5 -97 17 -116 105 -182 27 -20 52 -39 54 -42 3 -2 -23 -46 -57 -98 -60 -90 -64 -94 -147 -137 -69 -36 -91 -53 -114 -89 -15 -24 -42 -54 -59 -67 -17 -12 -60 -64 -96 -114 l-65 -91 -59 2 c-75 4 -96 -14 -156 -134 -51 -101 -52 -89 15 -278 22 -63 46 -143 52 -178 l13 -62 -47 -90 c-63 -122 -216 -329 -242 -330 -11 0 -57 -16 -103 -37 -45 -20 -84 -34 -87 -31 -3 3 -24 92 -45 199 -22 107 -65 309 -95 449 -30 140 -80 372 -110 514 -30 143 -56 260 -58 261 -1 1 -20 14 -42 29 -42 28 -130 93 -290 215 l-97 74 128 34 c200 52 295 73 344 73 65 0 240 38 269 58 92 65 106 66 152 15 46 -53 69 -69 108 -78 l33 -7 -26 38 c-31 46 -32 72 -6 157 21 69 19 91 -11 108 -29 15 -13 29 33 29 31 0 46 6 67 29 20 21 45 33 97 44 38 9 94 27 124 41 81 36 114 34 160 -11z" class=""></path>               <path d="M2477 3956 c-32 -41 -52 -84 -45 -92 9 -8 60 21 97 55 38 36 38 65 0 69 -20 2 -32 -5 -52 -32z m62 -3 c-14 -23 -89 -76 -89 -63 0 5 11 21 25 36 14 15 25 31 25 35 0 5 11 9 25 9 22 0 24 -3 14 -17z"></path>   </g> </svg>